<svg xmlns="http://www.w3.org/2000/svg" viewBox="0 0 256 256" role="img" aria-label="Fertilizer Quality Control icon">
  <g fill="none" stroke-linecap="round" stroke-linejoin="round">
    <!-- Outer ring-ish cluster -->
    <circle cx="128" cy="32" r="18" stroke="#1f5fbf" stroke-width="8"/>
    <circle cx="88" cy="44" r="12" stroke="#b1b1b1" stroke-width="7"/>
    <circle cx="166" cy="48" r="10" stroke="#111111" stroke-width="7"/>
    <circle cx="58" cy="70" r="14" stroke="#1f5fbf" stroke-width="7"/>
    <circle cx="196" cy="74" r="14" stroke="#d32f2f" stroke-width="7"/>
    <circle cx="34" cy="104" r="10" stroke="#6f6f6f" stroke-width="6"/>
    <circle cx="222" cy="110" r="10" stroke="#f6c338" stroke-width="6"/>
    <circle cx="30" cy="146" r="12" stroke="#d32f2f" stroke-width="6"/>
    <circle cx="224" cy="148" r="12" stroke="#1f5fbf" stroke-width="6"/>
    <circle cx="52" cy="188" r="14" stroke="#6f6f6f" stroke-width="7"/>
    <circle cx="200" cy="190" r="14" stroke="#111111" stroke-width="7"/>
    <circle cx="86" cy="214" r="12" stroke="#f6c338" stroke-width="7"/>
    <circle cx="168" cy="214" r="12" stroke="#d32f2f" stroke-width="7"/>
    <circle cx="128" cy="226" r="9" stroke="#b1b1b1" stroke-width="6"/>

    <!-- Middle cluster -->
    <circle cx="104" cy="84" r="16" stroke="#1f5fbf" stroke-width="8"/>
    <circle cx="152" cy="86" r="16" stroke="#f6c338" stroke-width="8"/>
    <circle cx="74" cy="100" r="10" stroke="#d32f2f" stroke-width="6"/>
    <circle cx="178" cy="102" r="10" stroke="#111111" stroke-width="6"/>
    <circle cx="122" cy="104" r="9" stroke="#6f6f6f" stroke-width="6"/>
    <circle cx="138" cy="104" r="9" stroke="#b1b1b1" stroke-width="6"/>

    <circle cx="92" cy="126" r="12" stroke="#1f5fbf" stroke-width="7"/>
    <circle cx="162" cy="126" r="12" stroke="#d32f2f" stroke-width="7"/>
    <circle cx="126" cy="126" r="18" stroke="#111111" stroke-width="8"/>

    <circle cx="68" cy="142" r="9" stroke="#f6c338" stroke-width="6"/>
    <circle cx="186" cy="142" r="9" stroke="#6f6f6f" stroke-width="6"/>
    <circle cx="110" cy="146" r="10" stroke="#d32f2f" stroke-width="6"/>
    <circle cx="144" cy="146" r="10" stroke="#1f5fbf" stroke-width="6"/>

    <circle cx="88" cy="166" r="14" stroke="#f6c338" stroke-width="7"/>
    <circle cx="166" cy="166" r="14" stroke="#d32f2f" stroke-width="7"/>
    <circle cx="126" cy="170" r="12" stroke="#6f6f6f" stroke-width="7"/>

    <!-- Small filler circles -->
    <circle cx="112" cy="70" r="7" stroke="#d32f2f" stroke-width="5"/>
    <circle cx="144" cy="70" r="7" stroke="#1f5fbf" stroke-width="5"/>
    <circle cx="60" cy="126" r="6" stroke="#f6c338" stroke-width="5"/>
    <circle cx="196" cy="126" r="6" stroke="#111111" stroke-width="5"/>
    <circle cx="104" cy="190" r="8" stroke="#1f5fbf" stroke-width="5"/>
    <circle cx="152" cy="190" r="8" stroke="#b1b1b1" stroke-width="5"/>
    <circle cx="120" cy="206" r="6" stroke="#6f6f6f" stroke-width="5"/>
    <circle cx="136" cy="206" r="6" stroke="#d32f2f" stroke-width="5"/>
  </g>
</svg>
